# Exported from Wings 3D 1.5.3
mtllib Lampadaire.mtl
o Cube1
#16 vertices, 14 faces
v -9.1125000e-2 4.09436693 -6.0750000e-2
v -9.1125000e-2 4.09436693 6.0750000e-2
v 9.1125000e-2 4.09436693 -6.0750000e-2
v 9.1125000e-2 4.09436693 6.0750000e-2
v -9.1125000e-2 1.4280146e-3 0.10125000
v -9.1125000e-2 1.4280146e-3 -0.10125000
v 9.1125000e-2 1.4280146e-3 -0.10125000
v 9.1125000e-2 1.4280146e-3 0.10125000
v -0.34170970 4.75566467 -0.32423141
v -0.34170970 4.75566467 0.32423141
v 0.34170970 4.75566467 -0.32423141
v 0.34170970 4.75566467 0.32423141
v -1.1102230e-16 5.22175243 1.1102230e-16
v -1.1102230e-16 5.22175243 -1.1102230e-16
v 1.1102230e-16 5.22175243 -1.1102230e-16
v 1.1102230e-16 5.22175243 1.1102230e-16
vn -0.68519236 -0.25302137 -0.68300191
vn -0.68519236 -0.25302137 0.68300191
vn 0.68519236 -0.25302137 -0.68300191
vn 0.68519236 -0.25302137 0.68300191
vn -0.57926396 -0.57353237 0.57923560
vn -0.57926396 -0.57353237 -0.57923560
vn 0.57926396 -0.57353237 -0.57923560
vn 0.57926396 -0.57353237 0.57923560
vn -0.69458649 0.17462400 -0.69789402
vn -0.69458649 0.17462400 0.69789402
vn 0.69458649 0.17462400 -0.69789402
vn 0.69458649 0.17462400 0.69789402
vn -0.49306756 0.71062694 -0.50189016
vn -0.49306756 0.71062694 0.50189016
vn 0.49306756 0.71062694 0.50189016
vn 0.49306756 0.71062694 -0.50189016
g Cube1_default
usemtl default
s 1
f 1//1 6//6 5//5 2//2
f 2//2 4//4 12//12 10//10
f 2//2 5//5 8//8 4//4
f 2//2 10//10 9//9 1//1
f 3//3 7//7 6//6 1//1
f 3//3 11//11 12//12 4//4
f 4//4 8//8 7//7 3//3
f 6//6 7//7 8//8 5//5
f 9//9 11//11 3//3 1//1
f 9//9 13//13 16//16 11//11
f 10//10 12//12 15//15 14//14
f 12//12 11//11 16//16 15//15
f 14//14 13//13 9//9 10//10
f 14//14 15//15 16//16 13//13
