# Exported from Wings 3D 1.5.3
mtllib PiegeDeLave.mtl
o Cube1
#16 vertices, 14 faces
v -1.00000000 -1.99939242 -1.00000000
v -1.00000000 -1.99939242 1.00000000
v -1.00000000 6.0757635e-4 -1.00000000
v -1.00000000 6.0757635e-4 1.00000000
v 1.00000000 -1.99939242 -1.00000000
v 1.00000000 -1.99939242 1.00000000
v 1.00000000 6.0757635e-4 -1.00000000
v 1.00000000 6.0757635e-4 1.00000000
v -0.97483418 -1.97422660 -0.97483418
v -0.97483418 -1.97422660 0.97483418
v -0.97483418 6.0757635e-4 -0.97483418
v -0.97483418 6.0757635e-4 0.97483418
v 0.97483418 -1.97422660 -0.97483418
v 0.97483418 -1.97422660 0.97483418
v 0.97483418 6.0757635e-4 -0.97483418
v 0.97483418 6.0757635e-4 0.97483418
vt 0.0000000e+0 0.25158282
vt 0.0000000e+0 0.50316564
vt 2.7755576e-17 0.0000000e+0
vt 2.7755576e-17 0.25158282
vt 2.7972416e-17 0.75474847
vt 3.1656445e-3 0.50633129
vt 3.1656445e-3 0.75158282
vt 3.1656445e-3 0.75158282
vt 3.1656445e-3 0.50633129
vt 6.3312890e-3 0.75474847
vt 6.3312890e-3 0.50316564
vt 6.3312890e-3 0.50316564
vt 6.3312890e-3 0.75158282
vt 0.25158282 0.25158282
vt 0.25158282 0.25791411
vt 0.25158282 0.50316564
vt 0.25158282 2.7972416e-17
vt 0.25158282 5.5511151e-17
vt 0.25158282 0.25158282
vt 0.25158282 0.25474847
vt 0.25158282 3.1656445e-3
vt 0.25158282 0.50316564
vt 0.25158282 0.50316564
vt 0.25158282 0.75158282
vt 0.25158282 0.75158282
vt 0.25371009 0.24970504
vt 0.25371009 0.50128787
vt 0.25474847 3.1656445e-3
vt 0.25474847 0.25474847
vt 0.49683436 0.50316564
vt 0.49683436 0.50316564
vt 0.49683436 0.75158282
vt 0.49683436 0.75158282
vt 0.50000000 0.25474847
vt 0.50000000 3.1656445e-3
vt 0.50316564 0.25791411
vt 0.50316564 0.0000000e+0
vt 0.50316564 0.25158282
vt 0.50316564 0.0000000e+0
vt 0.50316564 3.1656445e-3
vt 0.50316564 0.25474847
vt 0.50529291 0.24970504
vt 0.50529291 0.50128787
vt 0.74208589 0.50316564
vt 0.74208589 0.75158282
vt 0.75041513 0.50336162
vt 0.75041513 0.74861316
vt 0.75474847 2.7755576e-17
vt 0.75474847 6.9388939e-17
vt 0.75474847 0.25158282
vt 0.75474847 0.24841718
vt 0.99566667 0.50336162
vt 0.99566667 0.74861316
vt 1.00000000 0.0000000e+0
vt 1.00000000 0.24841718
vn -0.57735027 -0.57735027 -0.57735027
vn -0.57735027 -0.57735027 0.57735027
vn -0.40824829 0.81649658 -0.40824829
vn -0.40824829 0.81649658 0.40824829
vn 0.57735027 -0.57735027 -0.57735027
vn 0.57735027 -0.57735027 0.57735027
vn 0.40824829 0.81649658 -0.40824829
vn 0.40824829 0.81649658 0.40824829
vn 0.57735027 0.57735027 0.57735027
vn 0.57735027 0.57735027 -0.57735027
vn 0.40824829 0.81649658 0.40824829
vn 0.40824829 0.81649658 -0.40824829
vn -0.57735027 0.57735027 0.57735027
vn -0.57735027 0.57735027 -0.57735027
vn -0.40824829 0.81649658 0.40824829
vn -0.40824829 0.81649658 -0.40824829
g Cube1_Cube1_auv
usemtl Cube1_auv
s 1
f 1/43/1 5/27/5 6/26/6 2/42/2
f 2/18/2 4/14/4 3/1/3 1/3/1
f 2/4/2 6/19/6 8/16/8 4/2/4
f 3/50/3 7/38/7 5/37/5 1/48/1
f 3/15/3 11/29/11 15/34/15 7/36/7
f 4/2/4 12/6/12 11/8/11 3/5/3
f 5/40/5 7/41/7 8/20/8 6/21/6
f 7/10/7 15/7/15 16/9/16 8/11/8
f 8/39/8 16/35/16 12/28/12 4/17/4
f 9/22/9 11/24/11 12/13/12 10/12/10
f 9/49/9 13/54/13 15/55/15 11/51/11
f 10/46/10 14/52/14 13/53/13 9/47/9
f 12/32/12 16/25/16 14/23/14 10/30/10
f 14/44/14 16/45/16 15/33/15 13/31/13
