# Exported from Wings 3D 1.5.3
mtllib Mecano.mtl
o Cube2
#50 vertices, 63 faces
v -0.40000000 2.51534254 -0.40000000
v -0.40000000 2.51534254 0.40000000
v 0.40000000 2.51534254 0.40000000
v 0.40000000 2.51534254 -0.40000000
v -0.40000000 0.97271692 -0.80000000
v -0.40000000 1.09271692 -0.40000000
v -0.40000000 1.09271692 0.40000000
v -0.40000000 0.97271692 0.80000000
v 0.40000000 1.09271692 -0.40000000
v 0.40000000 0.97271692 -0.80000000
v 0.40000000 1.09271692 0.40000000
v 0.40000000 0.97271692 0.80000000
v 0.13333333 0.55232307 -0.80000000
v 0.13333333 0.55232307 0.80000000
v -0.40000000 0.55232307 9.7144515e-18
v 0.13333333 0.55232307 9.7144515e-18
v -0.40000000 2.51534254 0.80008071
v -0.40000000 1.71337332 0.80008071
v 0.40000000 1.71337332 0.80008071
v 0.40000000 2.51534254 0.80008071
v 0.40000000 1.71337332 -0.80008071
v -0.40000000 1.71337332 -0.80008071
v -0.40000000 2.51534254 -0.80008071
v 0.40000000 2.51534254 -0.80008071
v 0.50000000 2.25305639 -2.00035748
v 0.0000000e+0 1.75164101 2.00035748
v -0.50000000 2.25305639 2.00035748
v 0.0000000e+0 2.25410253 2.50051143
v 0.0000000e+0 2.25164101 2.50051143
v 0.0000000e+0 1.75164101 -2.00035748
v 0.0000000e+0 2.75410253 -2.00035748
v 0.0000000e+0 2.25277947 -2.50051143
v 0.0000000e+0 2.75410253 2.00035748
v -0.50000000 2.25268716 -2.00035748
v 0.50000000 2.25268716 2.00035748
v -0.50000000 4.4944811e-4 0.0000000e+0
v 0.16666667 4.4944811e-4 -1.00000000
v 0.16666667 4.4944811e-4 0.0000000e+0
v 0.16666667 4.4944811e-4 1.00000000
v 0.66745433 0.30032820 0.0000000e+0
v 0.66745433 4.4944811e-4 0.0000000e+0
v 0.66745433 0.30032820 1.00000000
v 0.66745433 4.4944811e-4 1.00000000
v 0.66745433 4.4944811e-4 -1.00000000
v 0.66745433 0.30032820 -1.00000000
v -0.45997605 3.25977822 -0.45997605
v -0.45997605 3.25977822 0.45997605
v 0.45997605 3.25977822 0.45997605
v 0.45997605 3.25977822 -0.45997605
v 0.0000000e+0 3.75656405 5.5511151e-17
vt 0.0000000e+0 0.13606238
vt 0.0000000e+0 0.27212476
vt 0.0000000e+0 0.56200192
vt 0.0000000e+0 0.65834882
vt 0.0000000e+0 0.67452187
vt 0.0000000e+0 0.84921716
vt 0.0000000e+0 0.90365310
vt 0.0000000e+0 0.95169927
vt 1.3877788e-17 0.46569059
vt 1.3877788e-17 0.84921716
vt 5.5511151e-17 0.27212476
vt 5.5511151e-17 0.56200192
vt 8.3266727e-17 0.0000000e+0
vt 9.7144515e-17 0.46569059
vt 8.1604846e-3 0.74759928
vt 3.2544979e-2 0.74759928
vt 8.3372069e-2 1.00000000
vt 8.3372069e-2 0.90365310
vt 8.3372069e-2 1.00000000
vt 9.0708253e-2 1.6327486e-2
vt 9.0708253e-2 0.13606238
vt 9.0708253e-2 0.20989331
vt 0.10884990 0.90365310
vt 0.10884990 0.84921716
vt 0.10884990 0.27212476
vt 0.10884990 0.40321452
vt 0.10884990 0.46569059
vt 0.10884990 0.30686762
vt 0.11701039 0.74759928
vt 0.12517087 0.84921716
vt 0.13333136 0.74759928
vt 0.14513321 0.0000000e+0
vt 0.14514419 0.10077547
vt 0.14514419 0.20989331
vt 0.14514419 0.10077547
vt 0.14514419 0.20989331
vt 0.14515517 0.0000000e+0
vt 0.16272489 0.65834882
vt 0.16272489 0.65834882
vt 0.16272489 0.73466084
vt 0.16272489 0.69915104
vt 0.16405588 0.56200192
vt 0.16405588 0.59691531
vt 0.16405588 0.65834882
vt 0.16673389 0.95193604
vt 0.16673389 0.95191831
vt 0.16867725 0.50044900
vt 0.16867725 0.46569059
vt 0.16867725 0.56200192
vt 0.19958012 1.6327486e-2
vt 0.19958012 0.10077547
vt 0.19958012 0.20989331
vt 0.19959110 0.0000000e+0
vt 0.24218126 0.74759928
vt 0.25010599 0.90365310
vt 0.25010599 0.99996443
vt 0.25034175 0.84921716
vt 0.25401605 1.6327486e-2
vt 0.25401605 0.20989331
vt 0.25401605 0.20989331
vt 0.25401605 1.6327486e-2
vt 0.25850223 0.74759928
vt 0.27753036 0.36847166
vt 0.27753036 0.43863702
vt 0.27753036 0.46481856
vt 0.27753036 0.27212476
vt 0.27753036 0.36847166
vt 0.29878727 0.65834882
vt 0.29878727 0.65834882
vt 0.29878727 0.69915104
vt 0.30844101 0.0000000e+0
vt 0.30845199 0.20989331
vt 0.30845199 0.10077547
vt 0.30845199 0.0000000e+0
vt 0.30845199 0.19356583
vt 0.30845199 0.25076561
vt 0.30845199 0.25095819
vt 0.30845199 0.25110053
vt 0.30845199 0.25143545
vt 0.32811176 0.59687400
vt 0.32811176 0.59691531
vt 0.33195531 0.27212476
vt 0.33735451 0.50044900
vt 0.33735451 0.54604760
vt 0.34313076 0.46692067
vt 0.34473529 0.19356583
vt 0.36735213 0.74759928
vt 0.37551262 0.74759928
vt 0.37551262 0.84921716
vt 0.38638026 0.43863702
vt 0.40467743 0.25076561
vt 0.40467743 0.25110053
vt 0.40467743 0.25124288
vt 0.41069637 0.46569059
vt 0.41143296 0.50614983
vt 0.41730189 0.32990776
vt 0.41730189 2.7755576e-17
vt 0.41730189 0.32990776
vt 0.41730189 0.55050304
vt 0.41730189 2.7755576e-17
vt 0.41730189 0.19356583
vt 0.41730189 0.25076561
vt 0.43484965 0.69915104
vt 0.43484965 0.65834882
vt 0.43484965 0.72595134
vt 0.43568525 0.65834882
vt 0.43809806 0.83971804
vt 0.47172684 0.16651226
vt 0.47172684 0.16651226
vt 0.47172684 0.49330325
vt 0.48969336 0.74039156
vt 0.48986849 0.49330325
vt 0.49216549 0.65831326
vt 0.49216549 0.56200192
vt 0.50068349 0.74759928
vt 0.50068349 0.74759928
vt 0.52615180 0.0000000e+0
vt 0.52615180 3.4872077e-2
vt 0.52615180 0.20542917
vt 0.52615180 0.27880950
vt 0.52615180 0.32990776
vt 0.52615180 0.38792734
vt 0.52615180 0.42366485
vt 0.52615180 0.53278269
vt 0.52615180 0.53278269
vt 0.52615180 0.55050304
vt 0.52615180 9.6311334e-2
vt 0.52615180 0.60909471
vt 0.54432665 0.65876380
vt 0.54432665 0.65834882
vt 0.56326893 0.83971804
vt 0.59854099 0.74025543
vt 0.62585436 0.74759928
vt 0.65296874 0.65849048
vt 0.65345796 0.72609640
vt 0.65633171 0.62203315
vt 0.68843980 0.83971804
vt 0.68887669 0.54895575
vt 0.69003012 0.20542917
vt 0.69003012 0.31454701
vt 0.69003012 0.42366485
vt 0.69003012 0.49709542
vt 0.69003012 0.16974190
vt 0.69020553 0.0000000e+0
vt 0.69020553 2.7212476e-2
vt 0.69020553 9.6311334e-2
vt 0.69020553 0.13606238
vt 0.69020553 0.24491228
vt 0.69020553 0.40818714
vt 0.69020553 0.40818714
vt 0.69020553 0.58471278
vt 0.69020553 0.13606238
vt 0.69020553 0.27212476
vt 0.69020553 0.54424952
vt 0.69067236 0.54424952
vt 0.75102524 0.74759928
vt 0.75824468 0.54502912
vt 0.75834389 0.40818714
vt 0.75834389 0.27212476
vt 0.75834389 0.54424952
vt 0.76454833 0.62411578
vt 0.77056147 0.27212476
vt 0.77056147 0.0000000e+0
vt 0.77056147 0.13606238
vt 0.77056147 0.13606238
vt 0.77056147 0.10161789
vt 0.77056147 0.19373665
vt 0.77056147 0.34030448
vt 0.77056147 0.39952303
vt 0.77056147 0.50029851
vt 0.77056147 0.55473444
vt 0.77056147 0.55473444
vt 0.77056147 0.65550991
vt 0.77056147 0.73750222
vt 0.77056147 0.81102949
vt 0.77056147 0.10161789
vt 0.77056147 0.50029851
vt 0.77809156 0.28184159
vt 0.77872195 2.7755576e-17
vt 0.82498642 0.65550991
vt 0.82498642 0.73750222
vt 0.83223137 0.28692247
vt 0.83314690 0.19373665
vt 0.83425613 0.39952303
vt 0.87941137 0.50029851
vt 0.87941137 0.55473444
vt 0.87941137 0.55473444
vt 0.87941137 0.65550991
vt 0.87941137 0.73750222
vt 0.87941137 0.81102949
vt 0.87941137 0.39952303
vt 0.87941137 0.50029851
vt 0.88227056 0.37476643
vt 0.88289713 0.28692247
vt 0.88757186 0.0000000e+0
vt 0.89224416 0.22318464
vt 0.89573234 0.10161789
vt 0.89573234 0.19269970
vt 0.89573234 0.28904661
vt 0.89573234 0.38535794
vt 0.89573234 0.43351350
vt 0.89573234 4.8090594e-2
vt 0.89573234 0.10161789
vt 0.89573234 0.14452645
vt 0.89573234 0.28904661
vt 0.97903104 0.24087296
vt 0.97903104 9.6352802e-2
vt 0.97903104 0.19269970
vt 0.97904127 0.38535794
vt 0.97904127 0.48166927
vt 0.97904127 0.33720238
vt 0.97907880 0.0000000e+0
vt 0.97907880 9.6352802e-2
vn -0.91705019 0.25686376 -0.30502451
vn -0.91705019 0.25686376 0.30502451
vn 0.91705019 0.25686376 0.30502451
vn 0.91705019 0.25686376 -0.30502451
vn -0.60257456 -0.18763691 -0.77569085
vn -0.98656285 -0.14462894 -7.6001395e-2
vn -0.98656285 -0.14462894 7.6001395e-2
vn -0.60257456 -0.18763691 0.77569085
vn 0.97199360 -0.23469637 1.2085457e-2
vn 0.68361733 -0.17072501 -0.70959165
vn 0.97199360 -0.23469637 -1.2085457e-2
vn 0.68361733 -0.17072501 0.70959165
vn -0.15237762 8.9630038e-2 -0.98424972
vn -0.15237762 8.9630038e-2 0.98424972
vn -0.98194648 -0.18915894 0.0000000e+0
vn 0.99270432 0.12057419 0.0000000e+0
vn -0.70854691 0.70402605 -4.8047824e-2
vn -0.79212324 -0.49711870 0.35413807
vn 0.79207198 -0.49720919 0.35412568
vn 0.70861592 0.70395902 -4.8012207e-2
vn 0.79212324 -0.49711870 -0.35413807
vn -0.79207198 -0.49720919 -0.35412568
vn -0.70861592 0.70395902 4.8012207e-2
vn 0.70854691 0.70402605 4.8047824e-2
vn 0.92841119 5.1395099e-3 -0.37151885
vn -1.3381265e-4 -0.90194109 0.43185907
vn -0.89464166 4.1424611e-3 0.44676520
vn 1.0072645e-4 0.40991879 0.91212202
vn -1.0072645e-4 -0.40991879 0.91212202
vn 1.3381396e-4 -0.90172453 -0.43231107
vn -1.4326745e-4 0.95102751 -0.30910621
vn -4.1744804e-11 -6.1330173e-5 -1.00000000
vn 1.4325419e-4 0.95121407 0.30853165
vn -0.92840665 4.9251281e-3 -0.37153308
vn 0.89463723 3.9701486e-3 0.44677564
vn -0.91982826 -0.39232126 0.0000000e+0
vn -0.39465848 -0.67296938 -0.62558524
vn 0.0000000e+0 -1.00000000 0.0000000e+0
vn -0.39465848 -0.67296938 0.62558524
vn 0.84459733 0.53540204 0.0000000e+0
vn 0.70710678 -0.70710678 0.0000000e+0
vn 0.65728610 0.57198783 0.49071876
vn 0.57295419 -0.51420991 0.63820973
vn 0.57295419 -0.51420991 -0.63820973
vn 0.65728610 0.57198783 -0.49071876
vn -0.63507903 0.43971496 -0.63507903
vn -0.63507903 0.43971496 0.63507903
vn 0.63507903 0.43971496 0.63507903
vn 0.63507903 0.43971496 -0.63507903
vn 0.0000000e+0 1.00000000 0.0000000e+0
g Cube2_Cube2_auv
usemtl Cube2_auv
s 1
f 1/9/1 6/2/6 7/25/7 2/27/2
f 1/195/1 46/203/46 49/176/49 4/179/4
f 2/22/2 7/20/7 8/32/8 18/33/18 17/34/17
f 2/7/2 17/10/17 20/24/20 3/23/3
f 2/29/2 47/30/47 46/6/46 1/15/1
f 3/75/3 11/74/11 9/100/9 4/101/4
f 3/87/3 48/89/48 47/57/47 2/62/2
f 4/59/4 9/61/9 10/71/10 21/73/21 24/72/24
f 4/185/4 24/186/24 23/171/23 1/170/1
f 4/54/4 49/57/49 48/30/48 3/31/3
f 5/178/5 13/167/13 15/196/15 6/182/6
f 6/175/6 15/181/15 7/190/7
f 7/184/7 15/168/15 14/194/14 8/193/8
f 8/169/8 12/191/12 19/192/19 18/177/18
f 8/99/8 14/112/14 12/126/12
f 9/132/9 16/130/16 13/134/13 10/135/10
f 10/76/10 13/86/13 5/102/5
f 11/174/11 16/180/16 9/189/9
f 12/105/12 14/106/14 16/129/16 11/111/11
f 13/16/13 37/5/37 36/38/36 15/40/15
f 13/161/13 45/151/45 44/155/44 37/157/37
f 14/145/14 42/163/42 40/165/40 16/152/16
f 15/128/15 36/124/36 39/138/39 14/136/14
f 16/147/16 40/164/40 45/162/45 13/148/13
f 17/80/17 27/114/27 33/113/33
f 17/64/17 33/82/33 20/90/20
f 18/28/18 26/66/26 27/67/27
f 18/127/18 27/143/27 17/119/17
f 19/96/19 26/108/26 18/121/18
f 19/47/19 35/3/35 26/14/26
f 20/52/20 19/51/19 12/53/12 11/58/11 3/60/3
f 20/43/20 33/4/33 35/12/35
f 20/141/20 35/122/35 19/140/19
f 21/123/21 25/142/25 24/125/24
f 21/26/21 30/63/30 25/65/25
f 22/188/22 21/173/21 10/172/10 5/187/5
f 22/121/22 30/110/30 21/98/21
f 22/83/22 34/49/34 30/48/30
f 23/36/23 22/35/22 5/37/5 6/50/6 1/52/1
f 23/81/23 31/44/31 34/42/34
f 23/140/23 34/120/34 22/139/22
f 24/118/24 25/144/25 31/146/31
f 24/117/24 31/109/31 23/97/23
f 25/202/25 32/212/32 31/213/31
f 26/198/26 29/206/29 27/205/27
f 26/209/26 35/210/35 29/201/29
f 27/199/27 28/211/28 33/200/33
f 28/92/28 27/77/27 29/91/29
f 29/78/29 35/93/35 28/79/28
f 30/18/30 32/45/32 25/19/25
f 30/55/30 34/56/34 32/46/32
f 31/17/31 32/8/32 34/18/34
f 33/208/33 28/204/28 35/207/35
f 37/11/37 38/1/38 39/13/39 36/21/36
f 37/160/37 44/154/44 41/149/41 38/158/38
f 38/158/38 41/150/41 43/153/43 39/159/39
f 39/85/39 43/94/43 42/95/42 14/84/14
f 40/70/40 42/41/42 43/39/43 41/68/41
f 41/69/41 44/104/44 45/103/45 40/70/40
f 47/166/47 48/197/48 50/183/50
f 48/88/48 49/115/49 50/107/50
f 49/133/49 46/156/46 50/137/50
f 50/131/50 46/116/46 47/133/47
