# Exported from Wings 3D 2.2.9
mtllib OLC.mtl
o text: OLC1
#72 vertices, 68 faces
v 1.96545410 6.5917969e-2 0.10000000
v 1.96545410 0.24499512 0.10000000
v 1.55456543 0.13952637 0.10000000
v 1.14038086 0.30981445 0.10000000
v 0.98327637 0.76904297 0.10000000
v 1.15136719 1.25354004 0.10000000
v 1.59191895 1.43481445 0.10000000
v 1.96545410 1.34033203 0.10000000
v 1.96545410 1.53698730 0.10000000
v 1.59411621 1.60180664 0.10000000
v 1.01733398 1.36889648 0.10000000
v 0.78991699 0.75805664 0.10000000
v 0.99206543 0.19006348 0.10000000
v 1.53039551 -2.6367188e-2 0.10000000
v 1.96545410 6.5917969e-2 -0.10000000
v 1.96545410 0.24499512 -0.10000000
v 1.55456543 0.13952637 -0.10000000
v 1.14038086 0.30981445 -0.10000000
v 0.98327637 0.76904297 -0.10000000
v 1.15136719 1.25354004 -0.10000000
v 1.59191895 1.43481445 -0.10000000
v 1.96545410 1.34033203 -0.10000000
v 1.96545410 1.53698730 -0.10000000
v 1.59411621 1.60180664 -0.10000000
v 1.01733398 1.36889648 -0.10000000
v 0.78991699 0.75805664 -0.10000000
v 0.99206543 0.19006348 -0.10000000
v 1.53039551 -2.6367188e-2 -0.10000000
v 0.65148926 0.0000000e+0 0.10000000
v 0.65148926 0.16699219 0.10000000
v 1.8676758e-2 0.16699219 0.10000000
v 1.8676758e-2 1.57543945 0.10000000
v -0.16589355 1.57543945 0.10000000
v -0.16589355 0.0000000e+0 0.10000000
v 0.65148926 0.0000000e+0 -0.10000000
v 0.65148926 0.16699219 -0.10000000
v 1.8676758e-2 0.16699219 -0.10000000
v 1.8676758e-2 1.57543945 -0.10000000
v -0.16589355 1.57543945 -0.10000000
v -0.16589355 0.0000000e+0 -0.10000000
v -1.22717285 -2.6367188e-2 0.10000000
v -0.68005371 0.19775391 0.10000000
v -0.47570801 0.80749512 0.10000000
v -0.67565918 1.38208008 0.10000000
v -1.20080566 1.60180664 0.10000000
v -1.76000977 1.37548828 0.10000000
v -1.96545410 0.76904297 0.10000000
v -1.76440430 0.19445801 0.10000000
v -1.21398926 1.43481445 0.10000000
v -0.81408691 1.26452637 0.10000000
v -0.66906738 0.78222656 0.10000000
v -0.81848145 0.30871582 0.10000000
v -1.22717285 0.13952637 0.10000000
v -1.62158203 0.31640625 0.10000000
v -1.77209473 0.78552246 0.10000000
v -1.61718750 1.25573730 0.10000000
v -1.22717285 -2.6367188e-2 -0.10000000
v -0.68005371 0.19775391 -0.10000000
v -0.47570801 0.80749512 -0.10000000
v -0.67565918 1.38208008 -0.10000000
v -1.20080566 1.60180664 -0.10000000
v -1.76000977 1.37548828 -0.10000000
v -1.96545410 0.76904297 -0.10000000
v -1.76440430 0.19445801 -0.10000000
v -1.21398926 1.43481445 -0.10000000
v -0.81408691 1.26452637 -0.10000000
v -0.66906738 0.78222656 -0.10000000
v -0.81848145 0.30871582 -0.10000000
v -1.22717285 0.13952637 -0.10000000
v -1.62158203 0.31640625 -0.10000000
v -1.77209473 0.78552246 -0.10000000
v -1.61718750 1.25573730 -0.10000000
vn -0.0000000e+0 0.0000000e+0 1.00000000
vn 0.77701487 -0.62948224 0.0000000e+0
vn 0.77701487 -0.62948224 0.0000000e+0
vn -0.0000000e+0 0.0000000e+0 1.00000000
vn 0.61293369 0.79013435 0.0000000e+0
vn 0.61293369 0.79013435 0.0000000e+0
vn -0.0000000e+0 0.0000000e+0 1.00000000
vn -0.0000000e+0 0.0000000e+0 1.00000000
vn 6.9350936e-2 0.99759233 0.0000000e+0
vn 6.9350936e-2 0.99759233 0.0000000e+0
vn -0.0000000e+0 -0.0000000e+0 1.00000000
vn -0.0000000e+0 -0.0000000e+0 1.00000000
vn 0.72815248 0.68541518 0.0000000e+0
vn 0.72815248 0.68541518 0.0000000e+0
vn -0.0000000e+0 0.0000000e+0 1.00000000
vn -0.0000000e+0 0.0000000e+0 1.00000000
vn 0.99999767 -2.1603305e-3 0.0000000e+0
vn 0.99999767 -2.1603305e-3 0.0000000e+0
vn -0.0000000e+0 0.0000000e+0 1.00000000
vn -0.0000000e+0 0.0000000e+0 1.00000000
vn 0.72676722 -0.68688384 0.0000000e+0
vn 0.72676722 -0.68688384 0.0000000e+0
vn 0.0000000e+0 0.0000000e+0 1.00000000
vn 0.0000000e+0 0.0000000e+0 1.00000000
vn 7.1245219e-2 -0.99745883 0.0000000e+0
vn 7.1245219e-2 -0.99745883 0.0000000e+0
vn 0.0000000e+0 0.0000000e+0 1.00000000
vn 0.61432144 -0.78905587 0.0000000e+0
vn 0.61432144 -0.78905587 0.0000000e+0
vn 0.0000000e+0 0.0000000e+0 1.00000000
vn 0.76549204 0.64344536 0.0000000e+0
vn 0.76549204 0.64344536 0.0000000e+0
vn 0.0000000e+0 0.0000000e+0 1.00000000
vn 0.0000000e+0 0.0000000e+0 1.00000000
vn -0.10529003 0.99444156 0.0000000e+0
vn -0.10529003 0.99444156 0.0000000e+0
vn -0.0000000e+0 0.0000000e+0 1.00000000
vn -0.0000000e+0 0.0000000e+0 1.00000000
vn -0.71672148 0.69735953 0.0000000e+0
vn -0.71672148 0.69735953 0.0000000e+0
vn -0.0000000e+0 0.0000000e+0 1.00000000
vn -0.0000000e+0 0.0000000e+0 1.00000000
vn -0.99997378 7.2412440e-3 0.0000000e+0
vn -0.99997378 7.2412440e-3 0.0000000e+0
vn -0.0000000e+0 -0.0000000e+0 1.00000000
vn -0.0000000e+0 -0.0000000e+0 1.00000000
vn -0.72122562 -0.69270023 0.0000000e+0
vn -0.72122562 -0.69270023 0.0000000e+0
vn -0.0000000e+0 0.0000000e+0 1.00000000
vn -0.0000000e+0 0.0000000e+0 1.00000000
vn -8.6512479e-2 -0.99625077 0.0000000e+0
vn -8.6512479e-2 -0.99625077 0.0000000e+0
vn 0.0000000e+0 0.0000000e+0 -1.00000000
vn 0.77701487 -0.62948224 0.0000000e+0
vn 0.77701487 -0.62948224 0.0000000e+0
vn 0.0000000e+0 0.0000000e+0 -1.00000000
vn 0.61293369 0.79013435 0.0000000e+0
vn 0.61293369 0.79013435 0.0000000e+0
vn 0.0000000e+0 0.0000000e+0 -1.00000000
vn 0.0000000e+0 0.0000000e+0 -1.00000000
vn 6.9350936e-2 0.99759233 0.0000000e+0
vn 6.9350936e-2 0.99759233 0.0000000e+0
vn 0.0000000e+0 0.0000000e+0 -1.00000000
vn 0.0000000e+0 0.0000000e+0 -1.00000000
vn 0.72815248 0.68541518 0.0000000e+0
vn 0.72815248 0.68541518 0.0000000e+0
vn 0.0000000e+0 0.0000000e+0 -1.00000000
vn 0.0000000e+0 0.0000000e+0 -1.00000000
vn 0.99999767 -2.1603305e-3 0.0000000e+0
vn 0.99999767 -2.1603305e-3 0.0000000e+0
vn 0.0000000e+0 -0.0000000e+0 -1.00000000
vn 0.0000000e+0 -0.0000000e+0 -1.00000000
vn 0.72676722 -0.68688384 0.0000000e+0
vn 0.72676722 -0.68688384 0.0000000e+0
vn 0.0000000e+0 -0.0000000e+0 -1.00000000
vn 0.0000000e+0 -0.0000000e+0 -1.00000000
vn 7.1245219e-2 -0.99745883 0.0000000e+0
vn 7.1245219e-2 -0.99745883 0.0000000e+0
vn 0.0000000e+0 -0.0000000e+0 -1.00000000
vn 0.61432144 -0.78905587 0.0000000e+0
vn 0.61432144 -0.78905587 0.0000000e+0
vn 0.0000000e+0 -0.0000000e+0 -1.00000000
vn 0.76549204 0.64344536 0.0000000e+0
vn 0.76549204 0.64344536 0.0000000e+0
vn 0.0000000e+0 -0.0000000e+0 -1.00000000
vn 0.0000000e+0 -0.0000000e+0 -1.00000000
vn -0.10529003 0.99444156 0.0000000e+0
vn -0.10529003 0.99444156 0.0000000e+0
vn 0.0000000e+0 -0.0000000e+0 -1.00000000
vn 0.0000000e+0 -0.0000000e+0 -1.00000000
vn -0.71672148 0.69735953 0.0000000e+0
vn -0.71672148 0.69735953 0.0000000e+0
vn 0.0000000e+0 0.0000000e+0 -1.00000000
vn 0.0000000e+0 0.0000000e+0 -1.00000000
vn -0.99997378 7.2412440e-3 0.0000000e+0
vn -0.99997378 7.2412440e-3 0.0000000e+0
vn 0.0000000e+0 0.0000000e+0 -1.00000000
vn 0.0000000e+0 0.0000000e+0 -1.00000000
vn -0.72122562 -0.69270023 0.0000000e+0
vn -0.72122562 -0.69270023 0.0000000e+0
vn 0.0000000e+0 0.0000000e+0 -1.00000000
vn 0.0000000e+0 0.0000000e+0 -1.00000000
vn -8.6512479e-2 -0.99625077 0.0000000e+0
vn -8.6512479e-2 -0.99625077 0.0000000e+0
vn -0.0000000e+0 0.0000000e+0 1.00000000
vn 0.70710678 -0.70710678 0.0000000e+0
vn 0.70710678 -0.70710678 0.0000000e+0
vn -0.0000000e+0 0.0000000e+0 1.00000000
vn 0.70710678 0.70710678 -0.0000000e+0
vn 0.70710678 0.70710678 -0.0000000e+0
vn -0.0000000e+0 0.0000000e+0 1.00000000
vn -0.0000000e+0 0.0000000e+0 1.00000000
vn 0.70710678 0.70710678 -0.0000000e+0
vn 0.70710678 0.70710678 -0.0000000e+0
vn -0.0000000e+0 0.0000000e+0 1.00000000
vn 0.70710678 0.70710678 -0.0000000e+0
vn 0.70710678 0.70710678 -0.0000000e+0
vn -0.0000000e+0 0.0000000e+0 1.00000000
vn -0.70710678 0.70710678 0.0000000e+0
vn -0.70710678 0.70710678 0.0000000e+0
vn -0.0000000e+0 0.0000000e+0 1.00000000
vn -0.0000000e+0 0.0000000e+0 1.00000000
vn -0.70710678 -0.70710678 0.0000000e+0
vn -0.70710678 -0.70710678 0.0000000e+0
vn 0.0000000e+0 0.0000000e+0 -1.00000000
vn 0.70710678 -0.70710678 0.0000000e+0
vn 0.70710678 -0.70710678 0.0000000e+0
vn 0.0000000e+0 0.0000000e+0 -1.00000000
vn 0.70710678 0.70710678 -0.0000000e+0
vn 0.70710678 0.70710678 -0.0000000e+0
vn 0.0000000e+0 0.0000000e+0 -1.00000000
vn 0.0000000e+0 0.0000000e+0 -1.00000000
vn 0.70710678 0.70710678 -0.0000000e+0
vn 0.70710678 0.70710678 -0.0000000e+0
vn 0.0000000e+0 0.0000000e+0 -1.00000000
vn 0.70710678 0.70710678 -0.0000000e+0
vn 0.70710678 0.70710678 -0.0000000e+0
vn 0.0000000e+0 0.0000000e+0 -1.00000000
vn -0.70710678 0.70710678 0.0000000e+0
vn -0.70710678 0.70710678 0.0000000e+0
vn 0.0000000e+0 0.0000000e+0 -1.00000000
vn 0.0000000e+0 0.0000000e+0 -1.00000000
vn -0.70710678 -0.70710678 0.0000000e+0
vn -0.70710678 -0.70710678 0.0000000e+0
vn 0.0000000e+0 0.0000000e+0 1.00000000
vn 0.0000000e+0 0.0000000e+0 1.00000000
vn -6.0099923e-4 -0.99999982 0.0000000e+0
vn -6.0099923e-4 -0.99999982 0.0000000e+0
vn -0.0000000e+0 0.0000000e+0 1.00000000
vn -0.0000000e+0 0.0000000e+0 1.00000000
vn 0.72985266 -0.68360448 0.0000000e+0
vn 0.72985266 -0.68360448 0.0000000e+0
vn -0.0000000e+0 0.0000000e+0 1.00000000
vn -0.0000000e+0 0.0000000e+0 1.00000000
vn 0.99998343 5.7568941e-3 0.0000000e+0
vn 0.99998343 5.7568941e-3 0.0000000e+0
vn -0.0000000e+0 -0.0000000e+0 1.00000000
vn -0.0000000e+0 -0.0000000e+0 1.00000000
vn 0.72847511 0.68507227 0.0000000e+0
vn 0.72847511 0.68507227 0.0000000e+0
vn 0.0000000e+0 -0.0000000e+0 1.00000000
vn 0.0000000e+0 -0.0000000e+0 1.00000000
vn 5.8555452e-3 0.99998286 0.0000000e+0
vn 5.8555452e-3 0.99998286 0.0000000e+0
vn 0.0000000e+0 -0.0000000e+0 1.00000000
vn 0.0000000e+0 -0.0000000e+0 1.00000000
vn -0.72728889 0.68633146 0.0000000e+0
vn -0.72728889 0.68633146 0.0000000e+0
vn 0.0000000e+0 0.0000000e+0 1.00000000
vn 0.0000000e+0 0.0000000e+0 1.00000000
vn -0.99998761 -4.9778743e-3 0.0000000e+0
vn -0.99998761 -4.9778743e-3 0.0000000e+0
vn 0.0000000e+0 0.0000000e+0 1.00000000
vn 0.0000000e+0 0.0000000e+0 1.00000000
vn -0.72573230 -0.68797720 0.0000000e+0
vn -0.72573230 -0.68797720 0.0000000e+0
vn 0.0000000e+0 -0.0000000e+0 1.00000000
vn 0.0000000e+0 -0.0000000e+0 1.00000000
vn 7.7014041e-3 -0.99997034 0.0000000e+0
vn 7.7014041e-3 -0.99997034 0.0000000e+0
vn -0.0000000e+0 -0.0000000e+0 1.00000000
vn -0.0000000e+0 -0.0000000e+0 1.00000000
vn -0.74507055 -0.66698566 0.0000000e+0
vn -0.74507055 -0.66698566 0.0000000e+0
vn -0.0000000e+0 0.0000000e+0 1.00000000
vn -0.0000000e+0 0.0000000e+0 1.00000000
vn -0.99997697 6.7865229e-3 0.0000000e+0
vn -0.99997697 6.7865229e-3 0.0000000e+0
vn -0.0000000e+0 0.0000000e+0 1.00000000
vn -0.0000000e+0 0.0000000e+0 1.00000000
vn -0.73713382 0.67574679 0.0000000e+0
vn -0.73713382 0.67574679 0.0000000e+0
vn 0.0000000e+0 0.0000000e+0 1.00000000
vn 0.0000000e+0 0.0000000e+0 1.00000000
vn 1.4539854e-2 0.99989429 0.0000000e+0
vn 1.4539854e-2 0.99989429 0.0000000e+0
vn 0.0000000e+0 0.0000000e+0 1.00000000
vn 0.0000000e+0 0.0000000e+0 1.00000000
vn 0.74527952 0.66675215 0.0000000e+0
vn 0.74527952 0.66675215 0.0000000e+0
vn 0.0000000e+0 0.0000000e+0 1.00000000
vn 0.0000000e+0 0.0000000e+0 1.00000000
vn 0.99999245 -3.8871210e-3 0.0000000e+0
vn 0.99999245 -3.8871210e-3 0.0000000e+0
vn 0.0000000e+0 -0.0000000e+0 1.00000000
vn 0.0000000e+0 -0.0000000e+0 1.00000000
vn 0.74147301 -0.67098269 0.0000000e+0
vn 0.74147301 -0.67098269 0.0000000e+0
vn 0.0000000e+0 -0.0000000e+0 -1.00000000
vn 0.0000000e+0 -0.0000000e+0 -1.00000000
vn -6.0099923e-4 -0.99999982 0.0000000e+0
vn -6.0099923e-4 -0.99999982 0.0000000e+0
vn 0.0000000e+0 -0.0000000e+0 -1.00000000
vn 0.0000000e+0 -0.0000000e+0 -1.00000000
vn 0.72985266 -0.68360448 0.0000000e+0
vn 0.72985266 -0.68360448 0.0000000e+0
vn 0.0000000e+0 0.0000000e+0 -1.00000000
vn 0.0000000e+0 0.0000000e+0 -1.00000000
vn 0.99998343 5.7568941e-3 0.0000000e+0
vn 0.99998343 5.7568941e-3 0.0000000e+0
vn 0.0000000e+0 0.0000000e+0 -1.00000000
vn 0.0000000e+0 0.0000000e+0 -1.00000000
vn 0.72847511 0.68507227 0.0000000e+0
vn 0.72847511 0.68507227 0.0000000e+0
vn 0.0000000e+0 0.0000000e+0 -1.00000000
vn 0.0000000e+0 0.0000000e+0 -1.00000000
vn 5.8555452e-3 0.99998286 0.0000000e+0
vn 5.8555452e-3 0.99998286 0.0000000e+0
vn -0.0000000e+0 0.0000000e+0 -1.00000000
vn -0.0000000e+0 0.0000000e+0 -1.00000000
vn -0.72728889 0.68633146 0.0000000e+0
vn -0.72728889 0.68633146 0.0000000e+0
vn -0.0000000e+0 0.0000000e+0 -1.00000000
vn -0.0000000e+0 0.0000000e+0 -1.00000000
vn -0.99998761 -4.9778743e-3 0.0000000e+0
vn -0.99998761 -4.9778743e-3 0.0000000e+0
vn -0.0000000e+0 -0.0000000e+0 -1.00000000
vn -0.0000000e+0 -0.0000000e+0 -1.00000000
vn -0.72573230 -0.68797720 0.0000000e+0
vn -0.72573230 -0.68797720 0.0000000e+0
vn 0.0000000e+0 0.0000000e+0 -1.00000000
vn 0.0000000e+0 0.0000000e+0 -1.00000000
vn 7.7014041e-3 -0.99997034 0.0000000e+0
vn 7.7014041e-3 -0.99997034 0.0000000e+0
vn 0.0000000e+0 0.0000000e+0 -1.00000000
vn 0.0000000e+0 0.0000000e+0 -1.00000000
vn -0.74507055 -0.66698566 0.0000000e+0
vn -0.74507055 -0.66698566 0.0000000e+0
vn 0.0000000e+0 0.0000000e+0 -1.00000000
vn 0.0000000e+0 0.0000000e+0 -1.00000000
vn -0.99997697 6.7865229e-3 0.0000000e+0
vn -0.99997697 6.7865229e-3 0.0000000e+0
vn 0.0000000e+0 -0.0000000e+0 -1.00000000
vn 0.0000000e+0 -0.0000000e+0 -1.00000000
vn -0.73713382 0.67574679 0.0000000e+0
vn -0.73713382 0.67574679 0.0000000e+0
vn 0.0000000e+0 -0.0000000e+0 -1.00000000
vn 0.0000000e+0 -0.0000000e+0 -1.00000000
vn 1.4539854e-2 0.99989429 0.0000000e+0
vn 1.4539854e-2 0.99989429 0.0000000e+0
vn -0.0000000e+0 -0.0000000e+0 -1.00000000
vn -0.0000000e+0 -0.0000000e+0 -1.00000000
vn 0.74527952 0.66675215 0.0000000e+0
vn 0.74527952 0.66675215 0.0000000e+0
vn -0.0000000e+0 0.0000000e+0 -1.00000000
vn -0.0000000e+0 0.0000000e+0 -1.00000000
vn 0.99999245 -3.8871210e-3 0.0000000e+0
vn 0.99999245 -3.8871210e-3 0.0000000e+0
vn -0.0000000e+0 0.0000000e+0 -1.00000000
vn -0.0000000e+0 0.0000000e+0 -1.00000000
vn 0.74147301 -0.67098269 0.0000000e+0
vn 0.74147301 -0.67098269 0.0000000e+0
g text: OLC1_default
usemtl default
s 1
f 2//4 3//8 14//50 1//1
f 4//12 13//46 14//49 3//7
f 5//15 12//41 13//45 4//11
f 6//19 11//37 12//42 5//16
f 7//24 10//34 11//38 6//20
f 8//27 9//30 10//33 7//23
f 15//53 28//102 17//60 16//56
f 17//59 28//101 27//98 18//64
f 18//63 27//97 26//93 19//67
f 19//68 26//94 25//89 20//71
f 20//72 25//90 24//86 21//76
f 21//75 24//85 23//82 22//79
f 30//108 31//112 34//122 29//105
f 32//115 33//118 34//121 31//111
f 35//125 40//142 37//132 36//128
f 37//131 40//141 39//138 38//135
f 41//147 57//211 58//215 42//151
f 42//152 58//216 59//219 43//155
f 43//156 59//220 60//223 44//159
f 44//160 60//224 61//227 45//163
f 45//164 61//228 62//231 46//167
f 46//168 62//232 63//235 47//171
f 47//172 63//236 64//239 48//175
f 48//176 64//240 57//212 41//148
f 49//179 65//243 66//247 50//183
f 50//184 66//248 67//251 51//187
f 51//188 67//252 68//255 52//191
f 52//192 68//256 69//259 53//195
f 53//196 69//260 70//263 54//199
f 54//200 70//264 71//267 55//203
f 55//204 71//268 72//271 56//207
f 56//208 72//272 65//244 49//180
s 2
f 1//2 15//54 16//57 2//5
f 2//6 16//58 17//61 3//9
f 3//10 17//62 18//65 4//13
f 4//14 18//66 19//69 5//17
f 5//18 19//70 20//73 6//21
f 6//22 20//74 21//77 7//25
f 7//26 21//78 22//80 8//28
f 8//29 22//81 23//83 9//31
f 9//32 23//84 24//87 10//35
f 10//36 24//88 25//91 11//39
f 11//40 25//92 26//95 12//43
f 12//44 26//96 27//99 13//47
f 13//48 27//100 28//103 14//51
f 14//52 28//104 15//55 1//3
f 29//106 35//126 36//129 30//109
f 30//110 36//130 37//133 31//113
f 31//114 37//134 38//136 32//116
f 32//117 38//137 39//139 33//119
f 33//120 39//140 40//143 34//123
f 34//124 40//144 35//127 29//107
f 41//145 53//193 54//197 48//173
f 42//149 52//189 53//194 41//146
f 43//154 51//186 52//190 42//150
f 44//157 50//181 51//185 43//153
f 45//161 49//177 50//182 44//158
f 46//166 56//206 49//178 45//162
f 47//170 55//202 56//205 46//165
f 48//174 54//198 55//201 47//169
f 57//210 69//258 68//253 58//213
f 58//214 68//254 67//250 59//218
f 59//217 67//249 66//245 60//221
f 60//222 66//246 65//241 61//225
f 61//226 65//242 72//270 62//230
f 62//229 72//269 71//266 63//234
f 63//233 71//265 70//262 64//238
f 64//237 70//261 69//257 57//209
