# Exported from Wings 3D 1.5.3
mtllib Maison.mtl
o Cube1
#10 vertices, 7 faces
v -1.75000000 1.3610667e-3 -1.00000000
v -1.75000000 1.3610667e-3 1.00000000
v -1.75000000 2.00136107 -1.00000000
v -1.75000000 2.00136107 1.00000000
v 1.75000000 1.3610667e-3 -1.00000000
v 1.75000000 1.3610667e-3 1.00000000
v 1.75000000 2.00136107 -1.00000000
v 1.75000000 2.00136107 1.00000000
v -1.75000000 3.00224996 0.0000000e+0
v 1.75000000 3.00224996 0.0000000e+0
vt 0.0000000e+0 0.50000000
vt 0.0000000e+0 0.50000000
vt 1.6653345e-16 1.00000000
vt 2.2204460e-16 0.0000000e+0
vt 0.16676540 -1.1102230e-16
vt 0.16676540 0.66646919
vt 0.16676540 1.5352303e-16
vt 0.16676540 0.66646919
vt 0.50000000 1.00000000
vt 0.83323460 -1.1102230e-16
vt 0.83323460 0.66646919
vt 0.83323460 4.2500725e-17
vt 0.83323460 0.66646919
vt 0.87500000 0.50000000
vt 0.87500000 0.50000000
vt 0.87500000 1.00000000
vt 0.87500000 4.4408921e-16
vn -0.57735027 -0.57735027 -0.57735027
vn -0.57735027 -0.57735027 0.57735027
vn -0.47592929 0.33638329 -0.81261159
vn -0.47592929 0.33638329 0.81261159
vn 0.57735027 -0.57735027 -0.57735027
vn 0.57735027 -0.57735027 0.57735027
vn 0.47592929 0.33638329 -0.81261159
vn 0.47592929 0.33638329 0.81261159
vn -0.57752134 0.81637559 0.0000000e+0
vn 0.57752134 0.81637559 0.0000000e+0
g Cube1_Cube1_auv
usemtl Cube1_auv
s 1
f 2/12/2 4/13/4 9/9/9 3/8/3 1/7/1
f 2/4/2 6/17/6 8/14/8 4/1/4
f 3/16/3 7/3/7 5/2/5 1/15/1
f 5/10/5 7/11/7 10/9/10 8/6/8 6/5/6
g Cube1_default
usemtl default
s 1
f 1//1 5//5 6//6 2//2
f 8//8 10//10 9//9 4//4
f 9//9 10//10 7//7 3//3
