# Exported from Wings 3D 2.2.4
mtllib OvniColor.mtl
o sphere1
#114 vertices, 128 faces
v 0.19134172 1.63187602 -8.3266727e-18
v 0.17677670 1.63187602 7.3223305e-2
v 0.13529903 1.63187602 0.13529903
v 7.3223305e-2 1.63187602 0.17677670
v -1.2196195e-17 1.63187602 0.19134172
v -7.3223305e-2 1.63187602 0.17677670
v -0.13529903 1.63187602 0.13529903
v -0.17677670 1.63187602 7.3223305e-2
v -0.19134172 1.63187602 1.5105929e-17
v -0.17677670 1.63187602 -7.3223305e-2
v -0.13529903 1.63187602 -0.13529903
v -7.3223305e-2 1.63187602 -0.17677670
v -5.9061399e-17 1.63187602 -0.19134172
v 7.3223305e-2 1.63187602 -0.17677670
v 0.13529903 1.63187602 -0.13529903
v 0.17677670 1.63187602 -7.3223305e-2
v 0.35355339 1.54516692 -8.3266727e-18
v 0.32664074 1.54516692 0.13529903
v 0.25000000 1.54516692 0.25000000
v 0.13529903 1.54516692 0.32664074
v -2.2635945e-18 1.54516692 0.35355339
v -0.13529903 1.54516692 0.32664074
v -0.25000000 1.54516692 0.25000000
v -0.32664074 1.54516692 0.13529903
v -0.35355339 1.54516692 3.4971130e-17
v -0.32664074 1.54516692 -0.13529903
v -0.25000000 1.54516692 -0.25000000
v -0.13529903 1.54516692 -0.32664074
v -8.8859200e-17 1.54516692 -0.35355339
v 0.13529903 1.54516692 -0.32664074
v 0.25000000 1.54516692 -0.25000000
v 0.32664074 1.54516692 -0.13529903
v 0.46193977 1.41539758 -8.3266727e-18
v 0.42677670 1.41539758 0.17677670
v 0.32664074 1.41539758 0.32664074
v 0.17677670 1.41539758 0.42677670
v 4.3731569e-18 1.41539758 0.46193977
v -0.17677670 1.41539758 0.42677670
v -0.32664074 1.41539758 0.32664074
v -0.42677670 1.41539758 0.17677670
v -0.46193977 1.41539758 4.8244633e-17
v -0.42677670 1.41539758 -0.17677670
v -0.32664074 1.41539758 -0.32664074
v -0.17677670 1.41539758 -0.42677670
v -1.0876945e-16 1.41539758 -0.46193977
v 0.17677670 1.41539758 -0.42677670
v 0.32664074 1.41539758 -0.32664074
v 0.42677670 1.41539758 -0.17677670
v 0.90000000 1.32513639 -1.2212453e-18
v 0.83149158 1.32513639 0.34441509
v 0.63639610 1.32513639 0.63639610
v 0.34441509 1.32513639 0.83149158
v 5.1009821e-17 1.32513639 0.90000000
v -0.34441509 1.32513639 0.83149158
v -0.63639610 1.32513639 0.63639610
v -0.83149158 1.32513639 0.34441509
v -0.90000000 1.32513639 1.0899697e-16
v -0.83149158 1.32513639 -0.34441509
v -0.63639610 1.32513639 -0.63639610
v -0.34441509 1.32513639 -0.83149158
v -1.6942660e-16 1.32513639 -0.90000000
v 0.34441509 1.32513639 -0.83149158
v 0.63639610 1.32513639 -0.63639610
v 0.83149158 1.32513639 -0.34441509
v 1.66298316 0.56327045 1.3766766e-17
v 1.53639610 0.56327045 0.63639610
v 1.17590667 0.56327045 1.17590667
v 0.63639610 0.56327045 1.53639610
v 1.4077156e-16 0.56327045 1.66298316
v -0.63639610 0.56327045 1.53639610
v -1.17590667 0.56327045 1.17590667
v -1.53639610 0.56327045 0.63639610
v -1.66298316 0.56327045 2.1742347e-16
v -1.53639610 0.56327045 -0.63639610
v -1.17590667 0.56327045 -1.17590667
v -0.63639610 0.56327045 -1.53639610
v -2.6654184e-16 0.56327045 -1.66298316
v 0.63639610 0.56327045 -1.53639610
v 1.17590667 0.56327045 -1.17590667
v 1.53639610 0.56327045 -0.63639610
v 1.27279221 0.27128943 1.3766766e-17
v 1.17590667 0.27128943 0.48707649
v 0.90000000 0.27128943 0.90000000
v 0.48707649 0.27128943 1.17590667
v 1.1687925e-16 0.27128943 1.27279221
v -0.48707649 0.27128943 1.17590667
v -0.90000000 0.27128943 0.90000000
v -1.17590667 0.27128943 0.48707649
v -1.27279221 0.27128943 1.6963886e-16
v -1.17590667 0.27128943 -0.48707649
v -0.90000000 0.27128943 -0.90000000
v -0.48707649 0.27128943 -1.17590667
v -1.9486493e-16 0.27128943 -1.27279221
v 0.48707649 0.27128943 -1.17590667
v 0.90000000 0.27128943 -0.90000000
v 1.17590667 0.27128943 -0.48707649
v 0.68883018 7.6193959e-2 1.3766766e-17
v 0.63639610 7.6193959e-2 0.26360390
v 0.48707649 7.6193959e-2 0.48707649
v 0.26360390 7.6193959e-2 0.63639610
v 8.1121891e-17 7.6193959e-2 0.68883018
v -0.26360390 7.6193959e-2 0.63639610
v -0.48707649 7.6193959e-2 0.48707649
v -0.63639610 7.6193959e-2 0.26360390
v -0.68883018 7.6193959e-2 9.8124133e-17
v -0.63639610 7.6193959e-2 -0.26360390
v -0.48707649 7.6193959e-2 -0.48707649
v -0.26360390 7.6193959e-2 -0.63639610
v -8.7592843e-17 7.6193959e-2 -0.68883018
v 0.26360390 7.6193959e-2 -0.63639610
v 0.48707649 7.6193959e-2 -0.48707649
v 0.63639610 7.6193959e-2 -0.26360390
v -2.3912496e-17 1.66232421 -8.3266727e-18
v 3.8943208e-17 7.6855378e-3 1.3766766e-17
vn 0.31838543 0.94796135 1.2343411e-15
vn 0.29414978 0.94796135 0.12184083
vn 0.22513249 0.94796135 0.22513249
vn 0.12184083 0.94796135 0.29414978
vn 0.0000000e+0 0.94796135 0.31838543
vn -0.12184083 0.94796135 0.29414978
vn -0.22513249 0.94796135 0.22513249
vn -0.29414978 0.94796135 0.12184083
vn -0.31838543 0.94796135 3.8793577e-17
vn -0.29414978 0.94796135 -0.12184083
vn -0.22513249 0.94796135 -0.22513249
vn -0.12184083 0.94796135 -0.29414978
vn -2.1160133e-17 0.94796135 -0.31838543
vn 0.12184083 0.94796135 -0.29414978
vn 0.22513249 0.94796135 -0.22513249
vn 0.29414978 0.94796135 -0.12184083
vn 0.63052297 0.77617059 -4.2751084e-17
vn 0.58252727 0.77617059 0.24129070
vn 0.44584707 0.77617059 0.44584707
vn 0.24129070 0.77617059 0.58252727
vn 7.1251806e-18 0.77617059 0.63052297
vn -0.24129070 0.77617059 0.58252727
vn -0.44584707 0.77617059 0.44584707
vn -0.58252727 0.77617059 0.24129070
vn -0.63052297 0.77617059 1.2112807e-16
vn -0.58252727 0.77617059 -0.24129070
vn -0.44584707 0.77617059 -0.44584707
vn -0.24129070 0.77617059 -0.58252727
vn -2.8500723e-17 0.77617059 -0.63052297
vn 0.24129070 0.77617059 -0.58252727
vn 0.44584707 0.77617059 -0.44584707
vn 0.58252727 0.77617059 -0.24129070
vn 0.51173533 0.85914315 -5.1764094e-17
vn 0.47278180 0.85914315 0.19583263
vn 0.36185152 0.85914315 0.36185152
vn 0.19583263 0.85914315 0.47278180
vn 5.5461529e-18 0.85914315 0.51173533
vn -0.19583263 0.85914315 0.47278180
vn -0.36185152 0.85914315 0.36185152
vn -0.47278180 0.85914315 0.19583263
vn -0.51173533 0.85914315 9.7982034e-17
vn -0.47278180 0.85914315 -0.19583263
vn -0.36185152 0.85914315 -0.36185152
vn -0.19583263 0.85914315 -0.47278180
vn -4.4369223e-17 0.85914315 -0.51173533
vn 0.19583263 0.85914315 -0.47278180
vn 0.36185152 0.85914315 -0.36185152
vn 0.47278180 0.85914315 -0.19583263
vn 0.47291109 0.88111015 -7.2812000e-17
vn 0.43691288 0.88111015 0.18097524
vn 0.33439864 0.88111015 0.33439864
vn 0.18097524 0.88111015 0.43691288
vn -1.4562400e-17 0.88111015 0.47291109
vn -0.18097524 0.88111015 0.43691288
vn -0.33439864 0.88111015 0.33439864
vn -0.43691288 0.88111015 0.18097524
vn -0.47291109 0.88111015 8.0093200e-17
vn -0.43691288 0.88111015 -0.18097524
vn -0.33439864 0.88111015 -0.33439864
vn -0.18097524 0.88111015 -0.43691288
vn -6.5530800e-17 0.88111015 -0.47291109
vn 0.18097524 0.88111015 -0.43691288
vn 0.33439864 0.88111015 -0.33439864
vn 0.43691288 0.88111015 -0.18097524
vn 0.99735836 -7.2638109e-2 -1.6036758e-16
vn 0.92143898 -7.2638109e-2 0.38167252
vn 0.70523886 -7.2638109e-2 0.70523886
vn 0.38167252 -7.2638109e-2 0.92143898
vn -2.1382344e-17 -7.2638109e-2 0.99735836
vn -0.38167252 -7.2638109e-2 0.92143898
vn -0.70523886 -7.2638109e-2 0.70523886
vn -0.92143898 -7.2638109e-2 0.38167252
vn -0.99735836 -7.2638109e-2 1.9244110e-16
vn -0.92143898 -7.2638109e-2 -0.38167252
vn -0.70523886 -7.2638109e-2 -0.70523886
vn -0.38167252 -7.2638109e-2 -0.92143898
vn -1.2294848e-16 -7.2638109e-2 -0.99735836
vn 0.38167252 -7.2638109e-2 -0.92143898
vn 0.70523886 -7.2638109e-2 -0.70523886
vn 0.92143898 -7.2638109e-2 -0.38167252
vn 0.46356415 -0.88606336 -7.0604558e-17
vn 0.42827743 -0.88606336 0.17739832
vn 0.32778936 -0.88606336 0.32778936
vn 0.17739832 -0.88606336 0.42827743
vn 0.0000000e+0 -0.88606336 0.46356415
vn -0.17739832 -0.88606336 0.42827743
vn -0.32778936 -0.88606336 0.32778936
vn -0.42827743 -0.88606336 0.17739832
vn -0.46356415 -0.88606336 9.5316153e-17
vn -0.42827743 -0.88606336 -0.17739832
vn -0.32778936 -0.88606336 -0.32778936
vn -0.17739832 -0.88606336 -0.42827743
vn -3.8832507e-17 -0.88606336 -0.46356415
vn 0.17739832 -0.88606336 -0.42827743
vn 0.32778936 -0.88606336 -0.32778936
vn 0.42827743 -0.88606336 -0.17739832
vn 0.20912512 -0.97788889 -2.0969904e-17
vn 0.19320642 -0.97788889 8.0028720e-2
vn 0.14787379 -0.97788889 0.14787379
vn 8.0028720e-2 -0.97788889 0.19320642
vn 0.0000000e+0 -0.97788889 0.20912512
vn -8.0028720e-2 -0.97788889 0.19320642
vn -0.14787379 -0.97788889 0.14787379
vn -0.19320642 -0.97788889 8.0028720e-2
vn -0.20912512 -0.97788889 3.4949839e-17
vn -0.19320642 -0.97788889 -8.0028720e-2
vn -0.14787379 -0.97788889 -0.14787379
vn -8.0028720e-2 -0.97788889 -0.19320642
vn -1.7474920e-17 -0.97788889 -0.20912512
vn 8.0028720e-2 -0.97788889 -0.19320642
vn 0.14787379 -0.97788889 -0.14787379
vn 0.19320642 -0.97788889 -8.0028720e-2
vn -8.7870389e-18 1.00000000 8.0840758e-17
vn -4.3590492e-18 -1.00000000 3.0513344e-18
g sphere1_default
usemtl default
s 1
f 1//1 17//17 32//32 16//16
f 1//1 113//113 2//2
f 2//2 18//18 17//17 1//1
f 2//2 113//113 3//3
f 3//3 19//19 18//18 2//2
f 3//3 113//113 4//4
f 4//4 20//20 19//19 3//3
f 4//4 113//113 5//5
f 5//5 21//21 20//20 4//4
f 5//5 113//113 6//6
f 6//6 22//22 21//21 5//5
f 6//6 113//113 7//7
f 7//7 23//23 22//22 6//6
f 7//7 113//113 8//8
f 8//8 24//24 23//23 7//7
f 8//8 113//113 9//9
f 9//9 25//25 24//24 8//8
f 9//9 113//113 10//10
f 10//10 26//26 25//25 9//9
f 10//10 113//113 11//11
f 11//11 27//27 26//26 10//10
f 11//11 113//113 12//12
f 12//12 28//28 27//27 11//11
f 12//12 113//113 13//13
f 13//13 29//29 28//28 12//12
f 13//13 113//113 14//14
f 14//14 30//30 29//29 13//13
f 14//14 113//113 15//15
f 15//15 31//31 30//30 14//14
f 15//15 113//113 16//16
f 16//16 32//32 31//31 15//15
f 16//16 113//113 1//1
f 17//17 33//33 48//48 32//32
f 18//18 34//34 33//33 17//17
f 19//19 35//35 34//34 18//18
f 20//20 36//36 35//35 19//19
f 21//21 37//37 36//36 20//20
f 22//22 38//38 37//37 21//21
f 23//23 39//39 38//38 22//22
f 24//24 40//40 39//39 23//23
f 25//25 41//41 40//40 24//24
f 26//26 42//42 41//41 25//25
f 27//27 43//43 42//42 26//26
f 28//28 44//44 43//43 27//27
f 29//29 45//45 44//44 28//28
f 30//30 46//46 45//45 29//29
f 31//31 47//47 46//46 30//30
f 32//32 48//48 47//47 31//31
f 33//33 49//49 64//64 48//48
f 34//34 50//50 49//49 33//33
f 35//35 51//51 50//50 34//34
f 36//36 52//52 51//51 35//35
f 37//37 53//53 52//52 36//36
f 38//38 54//54 53//53 37//37
f 39//39 55//55 54//54 38//38
f 40//40 56//56 55//55 39//39
f 41//41 57//57 56//56 40//40
f 42//42 58//58 57//57 41//41
f 43//43 59//59 58//58 42//42
f 44//44 60//60 59//59 43//43
f 45//45 61//61 60//60 44//44
f 46//46 62//62 61//61 45//45
f 47//47 63//63 62//62 46//46
f 48//48 64//64 63//63 47//47
f 49//49 65//65 80//80 64//64
f 50//50 66//66 65//65 49//49
f 51//51 67//67 66//66 50//50
f 52//52 68//68 67//67 51//51
f 53//53 69//69 68//68 52//52
f 54//54 70//70 69//69 53//53
f 55//55 71//71 70//70 54//54
f 56//56 72//72 71//71 55//55
f 57//57 73//73 72//72 56//56
f 58//58 74//74 73//73 57//57
f 59//59 75//75 74//74 58//58
f 60//60 76//76 75//75 59//59
f 61//61 77//77 76//76 60//60
f 62//62 78//78 77//77 61//61
f 63//63 79//79 78//78 62//62
f 64//64 80//80 79//79 63//63
f 65//65 81//81 96//96 80//80
f 66//66 82//82 81//81 65//65
f 67//67 83//83 82//82 66//66
f 68//68 84//84 83//83 67//67
f 69//69 85//85 84//84 68//68
f 70//70 86//86 85//85 69//69
f 71//71 87//87 86//86 70//70
f 72//72 88//88 87//87 71//71
f 73//73 89//89 88//88 72//72
f 74//74 90//90 89//89 73//73
f 75//75 91//91 90//90 74//74
f 76//76 92//92 91//91 75//75
f 77//77 93//93 92//92 76//76
f 78//78 94//94 93//93 77//77
f 79//79 95//95 94//94 78//78
f 80//80 96//96 95//95 79//79
f 81//81 97//97 112//112 96//96
f 82//82 98//98 97//97 81//81
f 83//83 99//99 98//98 82//82
f 84//84 100//100 99//99 83//83
f 85//85 101//101 100//100 84//84
f 86//86 102//102 101//101 85//85
f 87//87 103//103 102//102 86//86
f 88//88 104//104 103//103 87//87
f 89//89 105//105 104//104 88//88
f 90//90 106//106 105//105 89//89
f 91//91 107//107 106//106 90//90
f 92//92 108//108 107//107 91//91
f 93//93 109//109 108//108 92//92
f 94//94 110//110 109//109 93//93
f 95//95 111//111 110//110 94//94
f 96//96 112//112 111//111 95//95
f 97//97 114//114 112//112
f 98//98 114//114 97//97
f 99//99 114//114 98//98
f 100//100 114//114 99//99
f 101//101 114//114 100//100
f 102//102 114//114 101//101
f 103//103 114//114 102//102
f 104//104 114//114 103//103
f 105//105 114//114 104//104
f 106//106 114//114 105//105
f 107//107 114//114 106//106
f 108//108 114//114 107//107
f 109//109 114//114 108//108
f 110//110 114//114 109//109
f 111//111 114//114 110//110
f 112//112 114//114 111//111
